<?xml version="1.0" standalone="no"?><!DOCTYPE svg PUBLIC "-//W3C//DTD SVG 1.1//EN" "http://www.w3.org/Graphics/SVG/1.1/DTD/svg11.dtd"><svg xmlns:xlink="http://www.w3.org/1999/xlink" xmlns="http://www.w3.org/2000/svg" version="1.1" width="256" height="256" viewBox="0 0 256 256"><defs><style type="text/css"><![CDATA[
@font-face {
  font-family: "ifont";
  src: url("//at.alicdn.com/t/font_1442373896_4754455.eot?#iefix") format("embedded-opentype"), url("//at.alicdn.com/t/font_1442373896_4754455.woff") format("woff"), url("//at.alicdn.com/t/font_1442373896_4754455.ttf") format("truetype"), url("//at.alicdn.com/t/font_1442373896_4754455.svg#ifont") format("svg");
}

]]></style></defs><g class="transform-group"><g transform="scale(0.25, 0.25)"><path d="M597.333333 853.333333C644.266667 853.333333 682.666667 814.933333 682.666667 768L682.666667 213.333333 384 213.333333C360.533333 213.333333 341.333333 232.533333 341.333333 256L341.333333 682.666667 213.333333 682.666667 213.333333 213.333333C213.333333 142.506667 270.506667 85.333333 341.333333 85.333333L810.666667 85.333333C881.493333 85.333333 938.666667 142.506667 938.666667 213.333333L938.666667 256 768 256 768 768 768 810.666667C768 881.493333 710.826667 938.666667 640 938.666667L213.333333 938.666667C142.506667 938.666667 85.333333 881.493333 85.333333 810.666667L85.333333 768 512 768C512 814.933333 550.4 853.333333 597.333333 853.333333Z" fill="#909090"></path></g></g></svg>