<?xml version="1.0" standalone="no"?><!DOCTYPE svg PUBLIC "-//W3C//DTD SVG 1.1//EN" "http://www.w3.org/Graphics/SVG/1.1/DTD/svg11.dtd"><svg xmlns:xlink="http://www.w3.org/1999/xlink" xmlns="http://www.w3.org/2000/svg" version="1.1" width="256" height="256" viewBox="0 0 256 256"><defs><style type="text/css"><![CDATA[
@font-face {
  font-family: "ifont";
  src: url("//at.alicdn.com/t/font_1442373896_4754455.eot?#iefix") format("embedded-opentype"), url("//at.alicdn.com/t/font_1442373896_4754455.woff") format("woff"), url("//at.alicdn.com/t/font_1442373896_4754455.ttf") format("truetype"), url("//at.alicdn.com/t/font_1442373896_4754455.svg#ifont") format("svg");
}

]]></style></defs><g class="transform-group"><g transform="scale(0.25, 0.25)"><path d="M895.5 127 127.5 127c-35.35 0-64 28.65-64 64l0 640c0 35.35 28.65 64 64 64l768 0c35.35 0 64-28.65 64-64L959.5 191C959.5 155.65 930.85 127 895.5 127zM191.5 575l128-128L191.5 319l64-64 192 192L255.5 639 191.5 575zM703.5 639 447.5 639l0-64 256 0L703.5 639z" fill="#909090"></path></g></g></svg>