<?xml version="1.0" standalone="no"?><!DOCTYPE svg PUBLIC "-//W3C//DTD SVG 1.1//EN" "http://www.w3.org/Graphics/SVG/1.1/DTD/svg11.dtd"><svg xmlns:xlink="http://www.w3.org/1999/xlink" xmlns="http://www.w3.org/2000/svg" version="1.1" width="256" height="256" viewBox="0 0 256 256"><defs><style type="text/css"><![CDATA[
@font-face {
  font-family: "ifont";
  src: url("//at.alicdn.com/t/font_1442373896_4754455.eot?#iefix") format("embedded-opentype"), url("//at.alicdn.com/t/font_1442373896_4754455.woff") format("woff"), url("//at.alicdn.com/t/font_1442373896_4754455.ttf") format("truetype"), url("//at.alicdn.com/t/font_1442373896_4754455.svg#ifont") format("svg");
}

]]></style></defs><g class="transform-group"><g transform="scale(0.25, 0.25)"><path d="M158.806377 816.45406l163.454746 0 0-81.712023L158.806377 734.742037l0-27.247574 163.454746 0 0-81.741699L158.806377 625.752764l0-27.247574 163.454746 0 0-81.740676L158.806377 516.764514l0-27.246551 163.454746 0L322.261123 217.073944 77.065701 217.073944 77.065701 952.690908l599.380116 0L676.445818 843.729264l-517.63944 0L158.806377 816.45406zM803.855626 80.83812l-18.420535 0 0 163.483398 163.483398 0L948.918489 217.783095 803.855626 80.83812zM758.187517 80.83812 349.508697 80.83812l0 735.61594 599.409792 0L948.918489 271.568069 758.187517 271.568069 758.187517 80.83812zM867.17679 707.494463 431.250396 707.494463l0-27.247574 435.926394 0L867.17679 707.494463zM867.17679 598.704734 431.250396 598.704734 431.250396 571.458183l435.926394 0L867.17679 598.704734zM867.17679 489.51694 431.250396 489.51694l0-27.247574 435.926394 0L867.17679 489.51694zM867.17679 353.309768l0 27.246551L431.250396 380.556319 431.250396 353.309768 867.17679 353.309768z" fill="#909090"></path></g></g></svg>